<svg width="24" height="24" viewBox="0 0 24 24" fill="none" xmlns="http://www.w3.org/2000/svg">
  <path d="M12 2.25C8.96243 2.25 6.5 4.71243 6.5 7.75V9.6C6.5 10.8569 6.06428 12.0787 5.26673 13.0502L4.28437 14.2462C3.32361 15.4159 4.15517 17.175 5.66991 17.175H18.3301C19.8448 17.175 20.6764 15.4159 19.7156 14.2462L18.7333 13.0502C17.9357 12.0787 17.5 10.8569 17.5 9.6V7.75C17.5 4.71243 15.0376 2.25 12 2.25Z" stroke="currentColor" strokewidth="2" strokelinecap="round" strokelinejoin="round"></path>
  <path d="M9.55 18.65C10.1243 19.698 11.0695 20.3 12 20.3C12.9305 20.3 13.8757 19.698 14.45 18.65" stroke="currentColor" strokewidth="2" strokelinecap="round" strokelinejoin="round"></path>
</svg>
