<?xml version="1.0" standalone="no"?>
<!DOCTYPE svg PUBLIC "-//W3C//DTD SVG 20010904//EN"
 "http://www.w3.org/TR/2001/REC-SVG-20010904/DTD/svg10.dtd">
<svg version="1.0" xmlns="http://www.w3.org/2000/svg"
 width="512.000000pt" height="512.000000pt" viewBox="0 0 512.000000 512.000000"
 preserveAspectRatio="xMidYMid meet">

<g transform="translate(0.000000,512.000000) scale(0.100000,-0.100000)"
fill="#000000" stroke="none">
<path d="M2275 4835 c-985 -129 -1770 -861 -1964 -1830 -33 -167 -44 -312 -38
-519 6 -199 21 -313 63 -481 218 -868 923 -1532 1804 -1699 219 -41 572 -47
780 -11 290 48 572 151 810 295 821 495 1248 1419 1089 2360 -6 36 -25 119
-41 185 -233 915 -1028 1602 -1970 1704 -129 14 -409 12 -533 -4z m515 -315
c368 -46 725 -197 1010 -427 89 -72 257 -243 321 -328 122 -159 237 -371 299
-550 220 -634 109 -1326 -299 -1860 -64 -85 -232 -256 -321 -328 -531 -429
-1249 -553 -1895 -327 -198 69 -418 193 -585 327 -89 72 -257 243 -321 328
-216 282 -355 623 -399 975 -13 109 -13 351 0 460 46 368 197 725 427 1010 72
89 243 257 328 321 277 212 621 354 965 398 95 12 373 13 470 1z"/>
<path d="M1850 3349 c-111 -46 -176 -153 -195 -319 -13 -115 31 -269 98 -338
94 -98 218 -104 315 -16 171 153 151 542 -33 650 -50 29 -143 41 -185 23z"/>
<path d="M3130 3349 c-111 -46 -176 -153 -195 -319 -13 -115 31 -269 98 -338
94 -98 218 -104 315 -16 171 153 151 542 -33 650 -50 29 -143 41 -185 23z"/>
<path d="M1645 2066 c-66 -29 -105 -106 -91 -181 18 -96 263 -323 453 -419
474 -239 1043 -147 1420 230 107 106 143 163 143 224 0 76 -58 144 -133 157
-63 10 -118 -19 -179 -94 -142 -175 -364 -295 -598 -323 -158 -19 -328 10
-477 80 -117 54 -196 114 -294 219 -46 49 -97 97 -114 105 -36 19 -89 20 -130
2z"/>
</g>
</svg>
