<svg width="256" height="256" viewBox="0 0 256 256" xmlns="http://www.w3.org/2000/svg">
  <!-- круг -->
  <circle cx="128" cy="128" r="128" fill="#2b7fff"></circle>

  <!-- птица -->
  <path d="M186 92c-5 2-10 3-15 4 5-3 9-8 11-13-5 3-11 5-17 6-5-5-12-8-19-8-15 0-27 12-27 27 0 2 0 4 1 6-22-1-42-12-55-29-2 4-3 8-3 13 0 9 5 17 12 22-4 0-8-1-11-3v1c0 13 9 24 21 26-2 1-5 1-7 1-2 0-3 0-5-1 3 11 13 19 25 19-9 7-20 11-32 11h-6c12 8 26 12 41 12 49 0 76-41 76-76v-3c5-4 9-9 13-15z" fill="white"></path>
</svg>